<svg width="119" height="30" viewBox="0 0 119 30" fill="none" xmlns="http://www.w3.org/2000/svg">
<path d="M27.06 10.49V15.1H32.69V16.99H27.06V23H24.71V8.6H33.69V10.49H27.06ZM40.4986 15.94C41.0186 15.94 41.4753 15.8733 41.8686 15.74C42.2686 15.6067 42.5986 15.42 42.8586 15.18C43.1253 14.9333 43.3253 14.6367 43.4586 14.29C43.5919 13.9433 43.6586 13.5567 43.6586 13.13C43.6586 12.71 43.5919 12.3333 43.4586 12C43.3319 11.6667 43.1386 11.3833 42.8786 11.15C42.6186 10.9167 42.2886 10.74 41.8886 10.62C41.4953 10.4933 41.0319 10.43 40.4986 10.43H38.3586V15.94H40.4986ZM40.4986 8.6C41.4386 8.6 42.2519 8.71 42.9386 8.93C43.6319 9.15 44.2019 9.46 44.6486 9.86C45.1019 10.2533 45.4386 10.73 45.6586 11.29C45.8786 11.8433 45.9886 12.4567 45.9886 13.13C45.9886 13.8167 45.8719 14.4467 45.6386 15.02C45.4053 15.5867 45.0586 16.0767 44.5986 16.49C44.1386 16.8967 43.5653 17.2167 42.8786 17.45C42.1986 17.6767 41.4053 17.79 40.4986 17.79H38.3586V23H36.0186V8.6H40.4986ZM60.1892 11.06C60.1159 11.18 60.0392 11.27 59.9592 11.33C59.8792 11.3833 59.7792 11.41 59.6592 11.41C59.5326 11.41 59.3892 11.3567 59.2292 11.25C59.0759 11.1433 58.8826 11.0267 58.6492 10.9C58.4226 10.7667 58.1526 10.6467 57.8392 10.54C57.5259 10.4267 57.1526 10.37 56.7192 10.37C56.3192 10.37 55.9659 10.42 55.6592 10.52C55.3592 10.62 55.1059 10.76 54.8992 10.94C54.6926 11.12 54.5359 11.3333 54.4292 11.58C54.3292 11.82 54.2792 12.0833 54.2792 12.37C54.2792 12.7367 54.3759 13.0433 54.5692 13.29C54.7626 13.53 55.0159 13.7367 55.3292 13.91C55.6492 14.0833 56.0126 14.2367 56.4192 14.37C56.8259 14.4967 57.2392 14.6333 57.6592 14.78C58.0859 14.9267 58.5026 15.0933 58.9092 15.28C59.3159 15.4667 59.6759 15.7033 59.9892 15.99C60.3092 16.2767 60.5659 16.6267 60.7592 17.04C60.9526 17.4533 61.0492 17.9567 61.0492 18.55C61.0492 19.19 60.9392 19.79 60.7192 20.35C60.4992 20.91 60.1792 21.4 59.7592 21.82C59.3459 22.2333 58.8326 22.56 58.2192 22.8C57.6126 23.04 56.9192 23.16 56.1392 23.16C55.6792 23.16 55.2292 23.1133 54.7892 23.02C54.3559 22.9333 53.9392 22.81 53.5392 22.65C53.1459 22.4833 52.7759 22.2833 52.4292 22.05C52.0826 21.8167 51.7726 21.5567 51.4992 21.27L52.1792 20.15C52.2392 20.0567 52.3159 19.9833 52.4092 19.93C52.5026 19.8767 52.6059 19.85 52.7192 19.85C52.8726 19.85 53.0426 19.9233 53.2292 20.07C53.4159 20.21 53.6392 20.3667 53.8992 20.54C54.1659 20.7067 54.4859 20.8633 54.8592 21.01C55.2326 21.15 55.6792 21.22 56.1992 21.22C57.0459 21.22 57.6992 21.0133 58.1592 20.6C58.6259 20.1867 58.8592 19.6167 58.8592 18.89C58.8592 18.4833 58.7626 18.1533 58.5692 17.9C58.3759 17.64 58.1192 17.4233 57.7992 17.25C57.4859 17.0767 57.1259 16.93 56.7192 16.81C56.3126 16.69 55.8992 16.5633 55.4792 16.43C55.0592 16.29 54.6459 16.13 54.2392 15.95C53.8326 15.7633 53.4692 15.5233 53.1492 15.23C52.8359 14.93 52.5826 14.5633 52.3892 14.13C52.1959 13.69 52.0992 13.1433 52.0992 12.49C52.0992 11.97 52.1992 11.4667 52.3992 10.98C52.6059 10.4933 52.9026 10.0633 53.2892 9.69C53.6826 9.31 54.1659 9.00667 54.7392 8.78C55.3126 8.55333 55.9659 8.44 56.6992 8.44C57.5259 8.44 58.2826 8.57 58.9692 8.83C59.6626 9.09 60.2592 9.46 60.7592 9.94L60.1892 11.06ZM71.7194 12.8L66.0994 25.9C66.026 26.0533 65.936 26.1733 65.8294 26.26C65.7294 26.3467 65.5727 26.39 65.3594 26.39H63.7694L65.6494 22.31L61.4894 12.8H63.3594C63.5394 12.8 63.676 12.8433 63.7694 12.93C63.8694 13.01 63.9427 13.1067 63.9894 13.22L66.4194 19.01C66.4794 19.1767 66.5327 19.3433 66.5794 19.51C66.6327 19.67 66.6827 19.8367 66.7294 20.01C66.7827 19.8367 66.836 19.6667 66.8894 19.5C66.9427 19.3333 67.0027 19.1667 67.0694 19L69.3994 13.22C69.446 13.1 69.5227 13 69.6294 12.92C69.7427 12.84 69.866 12.8 69.9994 12.8H71.7194ZM79.0133 14.65C78.9599 14.7433 78.8999 14.81 78.8333 14.85C78.7666 14.89 78.6833 14.91 78.5833 14.91C78.4699 14.91 78.3466 14.8767 78.2133 14.81C78.0799 14.7367 77.9233 14.6567 77.7433 14.57C77.5633 14.4833 77.3499 14.4067 77.1033 14.34C76.8633 14.2667 76.5799 14.23 76.2533 14.23C75.9866 14.23 75.7433 14.2633 75.5233 14.33C75.3099 14.39 75.1266 14.48 74.9733 14.6C74.8266 14.7133 74.7133 14.85 74.6333 15.01C74.5533 15.1633 74.5133 15.33 74.5133 15.51C74.5133 15.75 74.5866 15.95 74.7333 16.11C74.8799 16.27 75.0733 16.41 75.3133 16.53C75.5533 16.6433 75.8266 16.7467 76.1333 16.84C76.4399 16.9333 76.7533 17.0333 77.0733 17.14C77.3933 17.2467 77.7066 17.37 78.0133 17.51C78.3199 17.65 78.5933 17.8233 78.8333 18.03C79.0733 18.23 79.2666 18.4767 79.4133 18.77C79.5599 19.0567 79.6333 19.4067 79.6333 19.82C79.6333 20.3 79.5466 20.7433 79.3733 21.15C79.1999 21.5567 78.9466 21.91 78.6133 22.21C78.2799 22.51 77.8633 22.7433 77.3633 22.91C76.8699 23.0767 76.3033 23.16 75.6633 23.16C75.3099 23.16 74.9666 23.1267 74.6333 23.06C74.3066 23 73.9933 22.9167 73.6933 22.81C73.3999 22.6967 73.1233 22.5633 72.8633 22.41C72.6099 22.2567 72.3833 22.09 72.1833 21.91L72.6833 21.09C72.7433 20.99 72.8166 20.9133 72.9033 20.86C72.9966 20.8 73.1099 20.77 73.2433 20.77C73.3833 20.77 73.5199 20.8167 73.6533 20.91C73.7933 20.9967 73.9533 21.0933 74.1333 21.2C74.3199 21.3067 74.5433 21.4067 74.8033 21.5C75.0633 21.5867 75.3866 21.63 75.7733 21.63C76.0933 21.63 76.3699 21.5933 76.6033 21.52C76.8366 21.44 77.0299 21.3333 77.1833 21.2C77.3366 21.0667 77.4499 20.9167 77.5233 20.75C77.5966 20.5767 77.6333 20.3933 77.6333 20.2C77.6333 19.94 77.5599 19.7267 77.4133 19.56C77.2666 19.3933 77.0699 19.25 76.8233 19.13C76.5833 19.01 76.3066 18.9033 75.9933 18.81C75.6866 18.7167 75.3733 18.6167 75.0533 18.51C74.7333 18.4033 74.4166 18.28 74.1033 18.14C73.7966 18 73.5199 17.8233 73.2733 17.61C73.0333 17.39 72.8399 17.1267 72.6933 16.82C72.5466 16.5067 72.4733 16.1267 72.4733 15.68C72.4733 15.2733 72.5533 14.8867 72.7133 14.52C72.8799 14.1533 73.1199 13.83 73.4333 13.55C73.7533 13.27 74.1433 13.05 74.6033 12.89C75.0699 12.7233 75.6066 12.64 76.2133 12.64C76.8999 12.64 77.5233 12.75 78.0833 12.97C78.6433 13.19 79.1133 13.49 79.4933 13.87L79.0133 14.65ZM84.9238 23.16C84.0771 23.16 83.4238 22.9233 82.9638 22.45C82.5104 21.97 82.2838 21.2967 82.2838 20.43V14.49H81.1638C81.0438 14.49 80.9404 14.4533 80.8538 14.38C80.7671 14.3 80.7238 14.1833 80.7238 14.03V13.16L82.3738 12.92L82.8438 9.97C82.8771 9.85667 82.9338 9.76667 83.0138 9.7C83.0938 9.62667 83.2004 9.59 83.3338 9.59H84.4338V12.94H87.2638V14.49H84.4338V20.28C84.4338 20.6467 84.5238 20.9267 84.7038 21.12C84.8838 21.3133 85.1238 21.41 85.4238 21.41C85.5904 21.41 85.7338 21.39 85.8537 21.35C85.9738 21.3033 86.0771 21.2567 86.1638 21.21C86.2504 21.1567 86.3238 21.11 86.3838 21.07C86.4504 21.0233 86.5138 21 86.5738 21C86.6938 21 86.7904 21.0667 86.8638 21.2L87.5038 22.25C87.1704 22.5433 86.7771 22.77 86.3238 22.93C85.8704 23.0833 85.4038 23.16 84.9238 23.16ZM95.5703 16.75C95.5703 16.39 95.517 16.0567 95.4103 15.75C95.3103 15.4367 95.1603 15.1667 94.9603 14.94C94.7603 14.7067 94.5103 14.5267 94.2103 14.4C93.917 14.2667 93.577 14.2 93.1903 14.2C92.4103 14.2 91.797 14.4233 91.3503 14.87C90.9036 15.3167 90.6203 15.9433 90.5003 16.75H95.5703ZM90.4403 18.07C90.467 18.65 90.557 19.1533 90.7103 19.58C90.8636 20 91.067 20.35 91.3203 20.63C91.5803 20.91 91.887 21.12 92.2403 21.26C92.6003 21.3933 93.0003 21.46 93.4403 21.46C93.8603 21.46 94.2236 21.4133 94.5303 21.32C94.837 21.22 95.1036 21.1133 95.3303 21C95.557 20.88 95.7503 20.7733 95.9103 20.68C96.0703 20.58 96.217 20.53 96.3503 20.53C96.5236 20.53 96.657 20.5967 96.7503 20.73L97.3603 21.52C97.107 21.82 96.8203 22.0733 96.5003 22.28C96.1803 22.4867 95.8403 22.6567 95.4803 22.79C95.1203 22.9167 94.7503 23.0067 94.3703 23.06C93.9903 23.12 93.6203 23.15 93.2603 23.15C92.5536 23.15 91.897 23.0333 91.2903 22.8C90.6903 22.56 90.167 22.21 89.7203 21.75C89.2803 21.29 88.9336 20.72 88.6803 20.04C88.4336 19.36 88.3103 18.5767 88.3103 17.69C88.3103 16.9833 88.4203 16.3233 88.6403 15.71C88.867 15.0967 89.187 14.5633 89.6003 14.11C90.0203 13.6567 90.527 13.3 91.1203 13.04C91.7203 12.7733 92.397 12.64 93.1503 12.64C93.777 12.64 94.357 12.7433 94.8903 12.95C95.4236 13.15 95.8836 13.4467 96.2703 13.84C96.657 14.2333 96.957 14.7167 97.1703 15.29C97.3903 15.8567 97.5003 16.5033 97.5003 17.23C97.5003 17.5633 97.4636 17.7867 97.3903 17.9C97.317 18.0133 97.1836 18.07 96.9903 18.07H90.4403ZM99.5053 23V12.8H100.805C101.099 12.8 101.285 12.9367 101.365 13.21L101.505 14.1C101.692 13.8867 101.885 13.6933 102.085 13.52C102.285 13.34 102.499 13.1867 102.725 13.06C102.959 12.9267 103.205 12.8233 103.465 12.75C103.732 12.6767 104.019 12.64 104.325 12.64C104.652 12.64 104.952 12.6867 105.225 12.78C105.499 12.8733 105.739 13.0067 105.945 13.18C106.159 13.3533 106.342 13.5633 106.495 13.81C106.649 14.0567 106.775 14.3333 106.875 14.64C107.029 14.2867 107.222 13.9833 107.455 13.73C107.689 13.4767 107.949 13.27 108.235 13.11C108.522 12.95 108.825 12.8333 109.145 12.76C109.472 12.68 109.802 12.64 110.135 12.64C110.682 12.64 111.169 12.7267 111.595 12.9C112.029 13.0733 112.392 13.3267 112.685 13.66C112.985 13.9867 113.212 14.39 113.365 14.87C113.519 15.35 113.595 15.8967 113.595 16.51V23H111.445V16.51C111.445 15.79 111.289 15.25 110.975 14.89C110.669 14.5233 110.212 14.34 109.605 14.34C109.332 14.34 109.075 14.3867 108.835 14.48C108.595 14.5733 108.385 14.71 108.205 14.89C108.025 15.07 107.882 15.2967 107.775 15.57C107.675 15.8367 107.625 16.15 107.625 16.51V23H105.475V16.51C105.475 15.7633 105.325 15.2167 105.025 14.87C104.725 14.5167 104.285 14.34 103.705 14.34C103.305 14.34 102.935 14.4433 102.595 14.65C102.255 14.85 101.942 15.1267 101.655 15.48V23H99.5053Z" fill="url(#paint0_linear_1_4)"/>
<g clip-path="url(#clip0_1_4)">
<path d="M12.4375 6.5525V7.09083L11.4414 7.26083C10.525 7.43083 8.43985 7.96917 7.88204 8.19583C7.6961 8.28083 7.57657 8.125 7.25782 7.36C7.03204 6.85 6.80626 6.425 6.73985 6.425C6.64689 6.425 5.1461 7.105 5.02657 7.20417C5.00001 7.2325 5.15939 7.62917 5.38517 8.11083C5.7836 8.94667 5.79689 8.975 5.53126 9.11667C5.27892 9.25833 5.27892 9.28667 5.47814 9.6975C5.63751 10.0233 5.75704 10.1225 5.95626 10.0658C6.18204 9.995 6.28829 10.1367 6.6336 10.9725C6.85939 11.5108 7.09845 11.95 7.16485 11.95C7.40392 11.95 8.85157 11.1992 8.85157 11.0717C8.85157 11.0008 8.67892 10.5758 8.45314 10.1083L8.0547 9.2725L8.6922 9.06C9.52892 8.7625 11.6141 8.26667 12.0789 8.26667H12.4375V15.6333V23H14.4961H16.5547V21.4417V19.8833H17.0195H17.4844V21.4417V23H18.4805H19.4766V20.6908C19.4766 17.815 19.4899 17.8433 17.8164 17.7017C16.2227 17.5742 15.3859 17.0642 14.8149 15.8883C14.5891 15.4067 14.5625 15.0242 14.5625 11.8083V8.26667H14.9344C15.3859 8.26667 17.4711 8.7625 18.3078 9.06L18.9453 9.2725L18.5469 10.1083C18.3211 10.5758 18.1484 11.0008 18.1484 11.0717C18.1484 11.1992 19.8484 12.0208 19.9281 11.9358C19.9547 11.9075 20.1672 11.44 20.393 10.9158C20.7516 10.0658 20.818 9.96667 21.0438 10.0942C21.2563 10.2075 21.3227 10.165 21.5086 9.75417C21.7211 9.28667 21.7211 9.25833 21.4688 9.11667C21.2164 8.975 21.2164 8.94667 21.6149 8.11083C21.8406 7.62917 22 7.2325 21.9734 7.20417C21.8938 7.11917 20.3664 6.425 20.2602 6.425C20.1938 6.425 19.968 6.85 19.7422 7.36C19.4234 8.125 19.3039 8.28083 19.118 8.19583C18.5602 7.96917 16.475 7.43083 15.5586 7.26083L14.5625 7.09083V6.5525V6H13.5H12.4375V6.5525Z" fill="#2859B4"/>
<path d="M16.5281 12.6725C15.957 12.9842 15.4922 13.82 15.4922 14.5C15.4922 15.5767 16.475 16.625 17.4844 16.625C18.4938 16.625 19.4766 15.5767 19.4766 14.5C19.4766 13.7917 19.0117 12.9842 18.4141 12.6583C17.7633 12.3042 17.1656 12.3042 16.5281 12.6725Z" fill="#2859B4"/>
</g>
<defs>
<linearGradient id="paint0_linear_1_4" x1="23" y1="7.36364" x2="118.8" y2="23.118" gradientUnits="userSpaceOnUse">
<stop stop-color="#4D885D"/>
<stop offset="1" stop-color="#2859B4"/>
</linearGradient>
<clipPath id="clip0_1_4">
<rect width="17" height="17" fill="white" transform="translate(5 6)"/>
</clipPath>
</defs>
</svg>
