<svg width="130" height="30" viewBox="0 0 130 30" fill="none" xmlns="http://www.w3.org/2000/svg">
<path d="M38.06 10.49V15.1H43.69V16.99H38.06V23H35.71V8.6H44.69V10.49H38.06ZM51.4986 15.94C52.0186 15.94 52.4753 15.8733 52.8686 15.74C53.2686 15.6067 53.5986 15.42 53.8586 15.18C54.1253 14.9333 54.3253 14.6367 54.4586 14.29C54.5919 13.9433 54.6586 13.5567 54.6586 13.13C54.6586 12.71 54.5919 12.3333 54.4586 12C54.3319 11.6667 54.1386 11.3833 53.8786 11.15C53.6186 10.9167 53.2886 10.74 52.8886 10.62C52.4953 10.4933 52.0319 10.43 51.4986 10.43H49.3586V15.94H51.4986ZM51.4986 8.6C52.4386 8.6 53.2519 8.71 53.9386 8.93C54.6319 9.15 55.2019 9.46 55.6486 9.86C56.1019 10.2533 56.4386 10.73 56.6586 11.29C56.8786 11.8433 56.9886 12.4567 56.9886 13.13C56.9886 13.8167 56.8719 14.4467 56.6386 15.02C56.4053 15.5867 56.0586 16.0767 55.5986 16.49C55.1386 16.8967 54.5653 17.2167 53.8786 17.45C53.1986 17.6767 52.4053 17.79 51.4986 17.79H49.3586V23H47.0186V8.6H51.4986ZM71.1892 11.06C71.1159 11.18 71.0392 11.27 70.9592 11.33C70.8792 11.3833 70.7792 11.41 70.6592 11.41C70.5326 11.41 70.3892 11.3567 70.2292 11.25C70.0759 11.1433 69.8826 11.0267 69.6492 10.9C69.4226 10.7667 69.1526 10.6467 68.8392 10.54C68.5259 10.4267 68.1526 10.37 67.7192 10.37C67.3192 10.37 66.9659 10.42 66.6592 10.52C66.3592 10.62 66.1059 10.76 65.8992 10.94C65.6926 11.12 65.5359 11.3333 65.4292 11.58C65.3292 11.82 65.2792 12.0833 65.2792 12.37C65.2792 12.7367 65.3759 13.0433 65.5692 13.29C65.7626 13.53 66.0159 13.7367 66.3292 13.91C66.6492 14.0833 67.0126 14.2367 67.4192 14.37C67.8259 14.4967 68.2392 14.6333 68.6592 14.78C69.0859 14.9267 69.5026 15.0933 69.9092 15.28C70.3159 15.4667 70.6759 15.7033 70.9892 15.99C71.3092 16.2767 71.5659 16.6267 71.7592 17.04C71.9526 17.4533 72.0492 17.9567 72.0492 18.55C72.0492 19.19 71.9392 19.79 71.7192 20.35C71.4992 20.91 71.1792 21.4 70.7592 21.82C70.3459 22.2333 69.8326 22.56 69.2192 22.8C68.6126 23.04 67.9192 23.16 67.1392 23.16C66.6792 23.16 66.2292 23.1133 65.7892 23.02C65.3559 22.9333 64.9392 22.81 64.5392 22.65C64.1459 22.4833 63.7759 22.2833 63.4292 22.05C63.0826 21.8167 62.7726 21.5567 62.4992 21.27L63.1792 20.15C63.2392 20.0567 63.3159 19.9833 63.4092 19.93C63.5026 19.8767 63.6059 19.85 63.7192 19.85C63.8726 19.85 64.0426 19.9233 64.2292 20.07C64.4159 20.21 64.6392 20.3667 64.8992 20.54C65.1659 20.7067 65.4859 20.8633 65.8592 21.01C66.2326 21.15 66.6792 21.22 67.1992 21.22C68.0459 21.22 68.6992 21.0133 69.1592 20.6C69.6259 20.1867 69.8592 19.6167 69.8592 18.89C69.8592 18.4833 69.7626 18.1533 69.5692 17.9C69.3759 17.64 69.1192 17.4233 68.7992 17.25C68.4859 17.0767 68.1259 16.93 67.7192 16.81C67.3126 16.69 66.8992 16.5633 66.4792 16.43C66.0592 16.29 65.6459 16.13 65.2392 15.95C64.8326 15.7633 64.4692 15.5233 64.1492 15.23C63.8359 14.93 63.5826 14.5633 63.3892 14.13C63.1959 13.69 63.0992 13.1433 63.0992 12.49C63.0992 11.97 63.1992 11.4667 63.3992 10.98C63.6059 10.4933 63.9026 10.0633 64.2892 9.69C64.6826 9.31 65.1659 9.00667 65.7392 8.78C66.3126 8.55333 66.9659 8.44 67.6992 8.44C68.5259 8.44 69.2826 8.57 69.9692 8.83C70.6626 9.09 71.2592 9.46 71.7592 9.94L71.1892 11.06ZM82.7194 12.8L77.0994 25.9C77.026 26.0533 76.936 26.1733 76.8294 26.26C76.7294 26.3467 76.5727 26.39 76.3594 26.39H74.7694L76.6494 22.31L72.4894 12.8H74.3594C74.5394 12.8 74.676 12.8433 74.7694 12.93C74.8694 13.01 74.9427 13.1067 74.9894 13.22L77.4194 19.01C77.4794 19.1767 77.5327 19.3433 77.5794 19.51C77.6327 19.67 77.6827 19.8367 77.7294 20.01C77.7827 19.8367 77.836 19.6667 77.8894 19.5C77.9427 19.3333 78.0027 19.1667 78.0694 19L80.3994 13.22C80.446 13.1 80.5227 13 80.6294 12.92C80.7427 12.84 80.866 12.8 80.9994 12.8H82.7194ZM90.0133 14.65C89.9599 14.7433 89.8999 14.81 89.8333 14.85C89.7666 14.89 89.6833 14.91 89.5833 14.91C89.4699 14.91 89.3466 14.8767 89.2133 14.81C89.0799 14.7367 88.9233 14.6567 88.7433 14.57C88.5633 14.4833 88.3499 14.4067 88.1033 14.34C87.8633 14.2667 87.5799 14.23 87.2533 14.23C86.9866 14.23 86.7433 14.2633 86.5233 14.33C86.3099 14.39 86.1266 14.48 85.9733 14.6C85.8266 14.7133 85.7133 14.85 85.6333 15.01C85.5533 15.1633 85.5133 15.33 85.5133 15.51C85.5133 15.75 85.5866 15.95 85.7333 16.11C85.8799 16.27 86.0733 16.41 86.3133 16.53C86.5533 16.6433 86.8266 16.7467 87.1333 16.84C87.4399 16.9333 87.7533 17.0333 88.0733 17.14C88.3933 17.2467 88.7066 17.37 89.0133 17.51C89.3199 17.65 89.5933 17.8233 89.8333 18.03C90.0733 18.23 90.2666 18.4767 90.4133 18.77C90.5599 19.0567 90.6333 19.4067 90.6333 19.82C90.6333 20.3 90.5466 20.7433 90.3733 21.15C90.1999 21.5567 89.9466 21.91 89.6133 22.21C89.2799 22.51 88.8633 22.7433 88.3633 22.91C87.8699 23.0767 87.3033 23.16 86.6633 23.16C86.3099 23.16 85.9666 23.1267 85.6333 23.06C85.3066 23 84.9933 22.9167 84.6933 22.81C84.3999 22.6967 84.1233 22.5633 83.8633 22.41C83.6099 22.2567 83.3833 22.09 83.1833 21.91L83.6833 21.09C83.7433 20.99 83.8166 20.9133 83.9033 20.86C83.9966 20.8 84.1099 20.77 84.2433 20.77C84.3833 20.77 84.5199 20.8167 84.6533 20.91C84.7933 20.9967 84.9533 21.0933 85.1333 21.2C85.3199 21.3067 85.5433 21.4067 85.8033 21.5C86.0633 21.5867 86.3866 21.63 86.7733 21.63C87.0933 21.63 87.3699 21.5933 87.6033 21.52C87.8366 21.44 88.0299 21.3333 88.1833 21.2C88.3366 21.0667 88.4499 20.9167 88.5233 20.75C88.5966 20.5767 88.6333 20.3933 88.6333 20.2C88.6333 19.94 88.5599 19.7267 88.4133 19.56C88.2666 19.3933 88.0699 19.25 87.8233 19.13C87.5833 19.01 87.3066 18.9033 86.9933 18.81C86.6866 18.7167 86.3733 18.6167 86.0533 18.51C85.7333 18.4033 85.4166 18.28 85.1033 18.14C84.7966 18 84.5199 17.8233 84.2733 17.61C84.0333 17.39 83.8399 17.1267 83.6933 16.82C83.5466 16.5067 83.4733 16.1267 83.4733 15.68C83.4733 15.2733 83.5533 14.8867 83.7133 14.52C83.8799 14.1533 84.1199 13.83 84.4333 13.55C84.7533 13.27 85.1433 13.05 85.6033 12.89C86.0699 12.7233 86.6066 12.64 87.2133 12.64C87.8999 12.64 88.5233 12.75 89.0833 12.97C89.6433 13.19 90.1133 13.49 90.4933 13.87L90.0133 14.65ZM95.9238 23.16C95.0771 23.16 94.4238 22.9233 93.9638 22.45C93.5104 21.97 93.2838 21.2967 93.2838 20.43V14.49H92.1638C92.0438 14.49 91.9404 14.4533 91.8538 14.38C91.7671 14.3 91.7238 14.1833 91.7238 14.03V13.16L93.3738 12.92L93.8438 9.97C93.8771 9.85667 93.9338 9.76667 94.0138 9.7C94.0938 9.62667 94.2004 9.59 94.3338 9.59H95.4338V12.94H98.2638V14.49H95.4338V20.28C95.4338 20.6467 95.5238 20.9267 95.7038 21.12C95.8838 21.3133 96.1238 21.41 96.4238 21.41C96.5904 21.41 96.7338 21.39 96.8537 21.35C96.9738 21.3033 97.0771 21.2567 97.1638 21.21C97.2504 21.1567 97.3238 21.11 97.3838 21.07C97.4504 21.0233 97.5138 21 97.5738 21C97.6938 21 97.7904 21.0667 97.8638 21.2L98.5038 22.25C98.1704 22.5433 97.7771 22.77 97.3238 22.93C96.8704 23.0833 96.4038 23.16 95.9238 23.16ZM106.57 16.75C106.57 16.39 106.517 16.0567 106.41 15.75C106.31 15.4367 106.16 15.1667 105.96 14.94C105.76 14.7067 105.51 14.5267 105.21 14.4C104.917 14.2667 104.577 14.2 104.19 14.2C103.41 14.2 102.797 14.4233 102.35 14.87C101.904 15.3167 101.62 15.9433 101.5 16.75H106.57ZM101.44 18.07C101.467 18.65 101.557 19.1533 101.71 19.58C101.864 20 102.067 20.35 102.32 20.63C102.58 20.91 102.887 21.12 103.24 21.26C103.6 21.3933 104 21.46 104.44 21.46C104.86 21.46 105.224 21.4133 105.53 21.32C105.837 21.22 106.104 21.1133 106.33 21C106.557 20.88 106.75 20.7733 106.91 20.68C107.07 20.58 107.217 20.53 107.35 20.53C107.524 20.53 107.657 20.5967 107.75 20.73L108.36 21.52C108.107 21.82 107.82 22.0733 107.5 22.28C107.18 22.4867 106.84 22.6567 106.48 22.79C106.12 22.9167 105.75 23.0067 105.37 23.06C104.99 23.12 104.62 23.15 104.26 23.15C103.554 23.15 102.897 23.0333 102.29 22.8C101.69 22.56 101.167 22.21 100.72 21.75C100.28 21.29 99.9336 20.72 99.6803 20.04C99.4336 19.36 99.3103 18.5767 99.3103 17.69C99.3103 16.9833 99.4203 16.3233 99.6403 15.71C99.867 15.0967 100.187 14.5633 100.6 14.11C101.02 13.6567 101.527 13.3 102.12 13.04C102.72 12.7733 103.397 12.64 104.15 12.64C104.777 12.64 105.357 12.7433 105.89 12.95C106.424 13.15 106.884 13.4467 107.27 13.84C107.657 14.2333 107.957 14.7167 108.17 15.29C108.39 15.8567 108.5 16.5033 108.5 17.23C108.5 17.5633 108.464 17.7867 108.39 17.9C108.317 18.0133 108.184 18.07 107.99 18.07H101.44ZM110.505 23V12.8H111.805C112.099 12.8 112.285 12.9367 112.365 13.21L112.505 14.1C112.692 13.8867 112.885 13.6933 113.085 13.52C113.285 13.34 113.499 13.1867 113.725 13.06C113.959 12.9267 114.205 12.8233 114.465 12.75C114.732 12.6767 115.019 12.64 115.325 12.64C115.652 12.64 115.952 12.6867 116.225 12.78C116.499 12.8733 116.739 13.0067 116.945 13.18C117.159 13.3533 117.342 13.5633 117.495 13.81C117.649 14.0567 117.775 14.3333 117.875 14.64C118.029 14.2867 118.222 13.9833 118.455 13.73C118.689 13.4767 118.949 13.27 119.235 13.11C119.522 12.95 119.825 12.8333 120.145 12.76C120.472 12.68 120.802 12.64 121.135 12.64C121.682 12.64 122.169 12.7267 122.595 12.9C123.029 13.0733 123.392 13.3267 123.685 13.66C123.985 13.9867 124.212 14.39 124.365 14.87C124.519 15.35 124.595 15.8967 124.595 16.51V23H122.445V16.51C122.445 15.79 122.289 15.25 121.975 14.89C121.669 14.5233 121.212 14.34 120.605 14.34C120.332 14.34 120.075 14.3867 119.835 14.48C119.595 14.5733 119.385 14.71 119.205 14.89C119.025 15.07 118.882 15.2967 118.775 15.57C118.675 15.8367 118.625 16.15 118.625 16.51V23H116.475V16.51C116.475 15.7633 116.325 15.2167 116.025 14.87C115.725 14.5167 115.285 14.34 114.705 14.34C114.305 14.34 113.935 14.4433 113.595 14.65C113.255 14.85 112.942 15.1267 112.655 15.48V23H110.505Z" fill="url(#paint0_linear_1_4)"/>
<path d="M30.1417 18.3833L31.3333 17.1917L30.1417 16L27.1667 18.975L20.025 11.8333L23 8.85832L21.8083 7.66666L20.6167 8.85832L19.425 7.66666L17.6417 9.44999L16.45 8.25832L15.2583 9.44999L16.45 10.6417L14.6667 12.425L15.8583 13.6167L14.6667 14.8083L15.8583 16L18.8333 13.025L25.975 20.1667L23 23.1417L24.1917 24.3333L25.3833 23.1417L26.575 24.3333L28.3583 22.55L29.55 23.7417L30.7417 22.55L29.55 21.3583L31.3333 19.575L30.1417 18.3833Z" fill="#1D6030"/>
<defs>
<linearGradient id="paint0_linear_1_4" x1="34" y1="7.36364" x2="129.8" y2="23.118" gradientUnits="userSpaceOnUse">
<stop stop-color="#1D6030"/>
<stop offset="1" stop-color="#3B28B4"/>
</linearGradient>
</defs>
</svg>
